# xmcd CD database file generated by OrangeCD 5.0
#
# Track frame offsets:
#	150
#	22415
#	38885
#	57972
#	91995
#	113277
#	132562
#	152255
#
# Disc length: 2592 seconds
#
# Revision: 1
# Processed by: cddbd v1.4PL0 Copyright (c) Steve Scherf et al.
# Submitted via: OrangeCD 5.0
#
DISCID=5f0a1e08
DTITLE=Walter Rossi - Diamonds For The Kid
DYEAR=1980
DGENRE=Blues
TTITLE0=Down By The Waterfront
TTITLE1=High Stakes (For Your Love)
TTITLE2=Sniffin The Breeze, Feelin The Freeze
TTITLE3=Willie Johnson
TTITLE4=So Susceptible
TTITLE5=13 Steps To Heaven
TTITLE6=Dear Mom
TTITLE7=Silent I Wait
EXTD=
EXTT0=
EXTT1=
EXTT2=
EXTT3=
EXTT4=
EXTT5=
EXTT6=
EXTT7=
PLAYORDER=
